<?xml version="1.0" encoding="UTF-8"?><svg id="Layer_2" xmlns="http://www.w3.org/2000/svg" viewBox="0 0 178.82 57.2"><defs><style>.cls-1{fill:#f2e500;}.cls-2{fill:#fff;}.cls-3{fill:#bccf00;}.cls-4{fill:#b2b2b2;}.cls-5{fill:#76b82a;}</style></defs><g id="Artwork"><g><g><polygon class="cls-4" points="129.71 14.17 126.98 9.45 129.71 4.72 135.16 4.72 137.89 9.45 135.16 14.17 129.71 14.17"/><polygon class="cls-4" points="121.52 28.35 118.79 23.62 121.52 18.9 126.98 18.9 129.71 23.62 126.98 28.35 121.52 28.35"/><polygon class="cls-4" points="162.45 14.17 159.72 9.44 162.45 4.72 167.91 4.72 170.63 9.44 167.9 14.17 162.45 14.17"/><polygon class="cls-4" points="170.64 28.35 167.91 23.62 170.64 18.9 176.09 18.9 178.82 23.62 176.09 28.35 170.64 28.35"/><polygon class="cls-4" points="137.89 56.71 135.16 51.98 137.89 47.25 143.35 47.25 146.08 51.98 143.35 56.71 137.89 56.71"/><polygon class="cls-4" points="154.26 56.71 151.54 51.98 154.26 47.25 159.72 47.25 162.45 51.98 159.72 56.71 154.26 56.71"/><polygon class="cls-4" points="146.08 23.62 143.35 18.9 146.08 14.17 151.53 14.17 151.54 14.17 154.26 18.9 151.53 23.62 146.08 23.62"/><polygon class="cls-2" points="146.08 33.07 143.35 28.35 146.08 23.62 151.53 23.62 151.54 23.62 154.26 28.35 151.53 33.07 146.08 33.07"/><polygon class="cls-4" points="137.89 37.8 135.16 33.08 137.89 28.35 143.35 28.35 146.08 33.08 143.35 37.8 137.89 37.8"/><polygon class="cls-4" points="154.26 37.8 151.54 33.08 154.26 28.35 159.72 28.35 162.45 33.08 159.72 37.8 154.26 37.8"/><polygon class="cls-5" points="129.71 23.62 126.98 18.9 129.71 14.17 135.16 14.17 137.89 18.9 135.16 23.62 129.71 23.62"/><polygon class="cls-5" points="146.08 14.17 143.35 9.45 146.08 4.72 151.54 4.72 154.26 9.45 153.26 11.18 151.53 14.17 146.08 14.17"/><polygon class="cls-5" points="129.71 42.53 126.98 37.8 129.71 33.08 129.7 33.08 129.71 33.08 135.16 33.08 135.16 33.08 137.89 37.8 135.16 42.53 129.71 42.53"/><polygon class="cls-5" points="162.45 23.62 159.72 18.9 162.45 14.17 167.91 14.17 170.63 18.9 167.9 23.62 162.45 23.62"/><polygon class="cls-5" points="146.08 51.98 143.35 47.25 146.08 42.53 151.53 42.53 151.54 42.53 154.26 47.25 151.53 51.98 146.08 51.98"/><polygon class="cls-5" points="162.45 42.53 159.72 37.8 162.45 33.08 167.9 33.08 167.91 33.08 170.63 37.8 167.9 42.53 162.45 42.53"/><polygon class="cls-3" points="137.89 9.45 135.16 4.72 137.89 0 143.35 0 146.08 4.72 143.35 9.45 137.89 9.45"/><polygon class="cls-3" points="154.26 9.44 151.54 4.72 154.26 0 159.72 0 162.45 4.72 159.72 9.44 154.26 9.44"/><polygon class="cls-3" points="121.52 37.8 118.79 33.08 121.52 28.35 126.98 28.35 129.7 33.08 126.98 37.8 121.52 37.8"/><polygon class="cls-3" points="129.71 51.98 126.98 47.25 129.71 42.53 135.16 42.53 137.89 47.25 135.16 51.98 129.71 51.98"/><polygon class="cls-3" points="170.64 37.8 167.91 33.08 170.64 28.35 176.09 28.35 178.82 33.08 176.09 37.8 170.64 37.8"/><polygon class="cls-3" points="162.45 51.98 159.72 47.25 162.45 42.53 167.91 42.53 170.63 47.25 167.9 51.98 162.45 51.98"/><polygon class="cls-3" points="143.35 28.35 137.89 28.35 135.16 23.62 137.89 18.9 143.35 18.9 146.08 23.62 143.35 28.35 143.35 28.35"/><polygon class="cls-3" points="159.72 28.35 154.26 28.35 151.54 23.62 154.26 18.9 159.72 18.9 162.45 23.62 159.72 28.35 159.72 28.35"/><polygon class="cls-3" points="146.08 42.53 143.35 37.8 146.08 33.08 151.54 33.08 154.26 37.8 151.53 42.53 146.08 42.53"/><polygon class="cls-1" points="143.35 18.9 137.89 18.9 135.16 14.17 137.89 9.45 143.35 9.45 146.08 14.17 143.35 18.9 143.35 18.9"/><polygon class="cls-1" points="129.71 33.08 126.98 28.35 129.71 23.62 135.16 23.62 137.89 28.35 135.16 33.08 129.71 33.08"/><polygon class="cls-1" points="159.72 18.9 154.26 18.9 151.54 14.17 153.26 11.18 154.26 9.45 154.26 9.45 154.26 9.44 159.72 9.44 162.45 14.17 159.72 18.9 159.72 18.9"/><polygon class="cls-1" points="143.35 47.25 137.89 47.25 135.16 42.53 137.89 37.8 143.35 37.8 146.08 42.53 143.35 47.25 143.35 47.25"/><polygon class="cls-1" points="162.45 33.08 159.72 28.35 162.45 23.62 167.91 23.62 170.63 28.35 167.9 33.08 162.45 33.08"/><polygon class="cls-1" points="159.72 47.25 154.26 47.25 151.54 42.53 154.26 37.8 159.72 37.8 162.45 42.53 159.72 47.25 159.72 47.25"/></g><g><path class="cls-2" d="m12.11,21.59v-10.42H2.22v10.42H0V.4h2.22v8.82h9.89V.4h2.22v21.19h-2.22Z"/><path class="cls-2" d="m33.92,21.59V3.66l-5.48,11.81c-.27.56-.5,1.36-.5,2.25v1.92h-2.22v-1.92c0-.95-.27-1.72-.5-2.25l-5.54-11.81v17.94h-2.1V.4h2.69l6.63,13.82L33.42.4h2.69v21.19h-2.19Z"/><path class="cls-2" d="m44.31,21.59V.4h2.22v19.24h8.35v1.95h-10.57Z"/><path class="cls-2" d="m66.83,21.59h-6.66c-.98,0-1.78-.33-2.34-.83l-.8-.74c-.71-.65-.98-1.24-.98-2.16v-1.72c0-.92.27-1.51.98-2.16l.89-.8c.59-.53,1.39-.77,2.37-.77h5.48v-1.48c0-.62-.35-1.04-.77-1.39l-.5-.44c-.68-.59-1.01-.71-1.89-.71h-5v-1.8h5.83c1.07,0,1.69.32,2.22.77l1.21,1.07c.92.8,1.1,1.3,1.1,2.37v9.59l-1.12,1.21Zm-1.07-7.37h-4.97c-.68,0-1.1.09-1.48.42l-.56.47c-.33.3-.56.59-.56,1.07v1.66c0,.44.21.77.53,1.04l.68.56c.3.24.71.35,1.39.35h4.97v-5.56Z"/><path class="cls-2" d="m80.6,21.59v-9.56c0-1.01-.35-1.54-1.06-2.19l-.62-.56c-.47-.44-1.07-.83-2.16-.83h-3.79v13.14h-2.19V7.8l1.12-1.21h5.92c1.04,0,1.66.24,2.25.77l1.89,1.72c.56.53.83.95.83,1.83v10.69h-2.19Z"/><path class="cls-2" d="m96.49,21.59h-6.13c-.89,0-1.69-.24-2.66-1.04l-1.48-1.21c-.59-.5-.92-1.18-.92-2.57v-5.36c0-1.39.33-2.07.92-2.58l1.48-1.21c.98-.8,1.75-1.04,2.63-1.04h5.09V.4h2.19v19.98l-1.12,1.21Zm-1.07-13.14h-4.08c-1.04,0-1.6.27-2.13.68l-.8.59c-.36.27-.92.89-.92,2.1v4.53c0,1.21.56,1.83.92,2.1l.8.59c.53.41,1.1.68,2.13.68h4.08v-11.28Z"/><path class="cls-2" d="m11.07,50.98v-2.07c0-.59-.09-1.21-.47-1.89l-2.58-4.83H2.16v8.79H0v-19.98l1.18-1.21h6.51c2.16,0,2.58.65,4.11,1.98.98.83,1.24,1.51,1.24,2.49v3.55c0,1.01-.27,1.69-1.27,2.49l-1.57,1.27,2.69,4.91c.41.77.5,1.57.5,2.31v2.19h-2.34Zm-.3-16.31c0-.8-.27-1.36-.77-1.78l-.77-.68c-.5-.41-.92-.56-2.13-.56H2.16v8.67h4.94c1.21,0,1.63-.15,2.13-.56l.77-.65c.5-.41.77-1.01.77-1.81v-2.63Z"/><path class="cls-2" d="m27.12,44.14h-8.88v1.63c0,1.21.47,1.83.83,2.1l.74.56c.53.39,1.01.68,2.01.68h5.59v1.87h-6.6c-.83,0-1.54-.24-2.49-1.04l-1.42-1.21c-.56-.5-.83-1.18-.83-2.58v-5.56c0-1.39.27-2.07.83-2.58l1.42-1.21c.95-.8,1.66-1.04,2.49-1.04h2.66c.83,0,1.54.24,2.49,1.04l1.42,1.21c.56.5.86,1.18.86,2.58v2.37l-1.12,1.18Zm-1.01-3.34c0-1.21-.5-1.83-.86-2.1l-.74-.59c-.5-.41-1.01-.71-2.01-.71h-.68c-1.01,0-1.51.29-2.01.71l-.74.59c-.35.27-.83.89-.83,2.1v1.57h7.87v-1.57Z"/><path class="cls-2" d="m42.14,55.33l-1.24,1.1c-.53.44-1.15.77-2.22.77h-6.42v-1.87h5.56c.89,0,1.18-.15,1.89-.71l.56-.44c.41-.33.77-.77.77-1.39v-1.81h-5.06c-.89,0-1.69-.24-2.66-1.04l-1.48-1.21c-.59-.5-.92-1.18-.92-2.58v-5.36c0-1.39.33-2.07.92-2.58l1.48-1.21c.98-.8,1.75-1.04,2.64-1.04h7.28v16.99c0,1.07-.18,1.54-1.1,2.37Zm-1.09-17.49h-4.08c-1.04,0-1.6.27-2.13.68l-.8.59c-.35.27-.92.89-.92,2.1v4.53c0,1.21.56,1.84.92,2.1l.8.59c.53.41,1.09.68,2.13.68h4.08v-11.28Z"/><path class="cls-2" d="m45.9,33.6v-2.81h2.31v2.81h-2.31Zm.06,17.38v-15.01h2.19v15.01h-2.19Z"/><path class="cls-2" d="m62.37,49.5l-1.18.92c-.44.33-1.15.56-1.95.56h-8.05v-1.87h7.55c.65,0,1.01-.12,1.33-.35l.5-.39c.27-.21.53-.62.53-1.07v-1.16c0-.98-.47-1.42-1.78-1.54l-5.33-.53c-2.28-.24-3.11-1.51-3.11-3.05v-1.6c0-1.09.33-1.63.8-1.98l1.18-.92c.44-.33,1.15-.56,1.95-.56h7.43v1.87h-6.93c-.65,0-1.01.12-1.33.35l-.5.38c-.27.21-.53.62-.53,1.07v.92c0,.92.47,1.36,1.72,1.48l5.03.5c2.55.27,3.46,1.36,3.46,3.02v1.95c0,1.1-.33,1.63-.8,1.98Z"/><path class="cls-2" d="m70.37,50.98c-1.07,0-1.75-.24-2.28-.68l-1.21-1.07c-.89-.8-1.04-1.33-1.04-2.43v-14.09h2.19v3.25h4.65v1.87h-4.65v8.76c0,.5.18,1.01.86,1.6l.36.3c.68.56,1.07.62,1.95.62h1.48v1.87h-2.31Z"/><path class="cls-2" d="m77.54,37.84v13.14h-2.19v-13.79l1.12-1.21h6.45v1.87h-5.39Z"/><path class="cls-2" d="m96.52,55.33l-1.24,1.1c-.53.44-1.15.77-2.22.77h-6.57v-1.87h5.71c.89,0,1.18-.15,1.89-.71l.56-.44c.41-.33.77-.77.77-1.39v-1.81h-4.85c-1.04,0-1.66-.24-2.25-.77l-1.89-1.72c-.56-.53-.83-.95-.83-1.84v-10.69h2.19v9.56c0,1.01.36,1.54,1.06,2.19l.62.56c.47.44,1.06.83,2.16.83h3.79v-13.14h2.19v16.99c0,1.07-.18,1.54-1.1,2.37Z"/></g></g></g></svg>